<?xml version="1.0" encoding="utf-8"?>
<!-- Generator: Adobe Illustrator 15.0.0, SVG Export Plug-In . SVG Version: 6.00 Build 0)  -->
<!DOCTYPE svg PUBLIC "-//W3C//DTD SVG 1.1//EN" "http://www.w3.org/Graphics/SVG/1.1/DTD/svg11.dtd">
<svg version="1.1" id="Layer_1" xmlns="http://www.w3.org/2000/svg" xmlns:xlink="http://www.w3.org/1999/xlink" x="0px" y="0px"
	 width="194px" height="65px" viewBox="0 0 194 65" enable-background="new 0 0 194 65" xml:space="preserve">
<g>
	<g>
		<g>
			<path fill="#CD0009" d="M33.742,5.123h12.232l-9.642,25.798c0,0-2.556,8.417-15.519,8.782H0l6.573-8.966h10.224
				c0,0,5.934,0.596,8.581-4.207L33.742,5.123z"/>
			<path fill="#CD0009" d="M87.293,5.123h11.365l3.218,22.506l17.322-22.506h13.556l-24.168,32.11c0,0-0.822,2.197-4.382,2.06h-8.9
				c0,0-2.191-0.275-2.464-1.784L87.293,5.123z"/>
			<path fill="#CD0009" d="M85.17,14.181c0.138-7.822-5.506-9.058-5.506-9.058H49.403L36.868,39.602l12.563-0.034l4.382-11.527
				c0.137-0.823,1.095-0.411,1.095-0.411l12.598,12.213l14.469-0.046l-13.1-13.265c12.734-0.275,14.652-5.901,14.652-5.901
				C85.445,18.298,85.17,14.181,85.17,14.181z M72.573,16.925c-0.016,0.167-0.958,1.373-2.602,1.373l-9.482-0.034l-4.895,5.111
				l3.012-9.331l14.001,0.068C72.607,14.112,72.612,16.528,72.573,16.925z"/>
		</g>
	</g>
	<g>
		<path d="M192.63,27.401c0,0-6.573-3.568-9.22-3.295l-4.199-8.965c0,0-0.913-3.386-7.577-3.935c0,0-11.502-13.082-30.946-10.978
			l0.822,4.3c0,0,0,1.188-0.183,2.379l-4.998,25.82l-17.252,0.138c0,0-4.633,7.548-14.538,9.812h87.088l2.374-12.442
			C193.999,30.235,194.09,28.498,192.63,27.401z M174.007,14.134c0,0,2.739,0.366,3.469,2.563l3.744,8.782
			c0,0,0.456,1.831-2.282,1.28c0,0-3.469-1.554-5.934-1.92c0,0-7.121-1.464-8.49-1.006l-2.054-8.6l1.962-0.276
			c0,0-6.344-1.783-8.307-2.835L174.007,14.134z M143.608,6.45c4.291,1.006,3.743,3.477,3.743,3.477l-4.016,21.316l-4.656,1.463
			L143.608,6.45z M185.965,33.53c-1.917-1.648-4.746-1.739-4.746-1.739l-16.98-1.738c-1.825-0.456-2.646,0.915-2.646,0.915
			l-5.386,6.13l-33.502-0.092c0.457-0.732,2.009-1.188,2.009-1.188l30.398-2.379l5.843-5.855c1.37-1.097,2.647-0.549,2.647-0.549
			l18.532,3.019C186.604,31.06,185.965,33.53,185.965,33.53z"/>
		<polygon points="135.438,10.704 138.109,10.979 134.137,29.298 122.43,29.504 		"/>
		<polygon points="122.43,29.504 134.137,29.298 138.109,10.979 135.438,10.704 		"/>
	</g>
	<g>
		<g>
			<path fill="#CD0009" d="M6.84,59.626v-9.794h-3.49V47.84h9.347v1.992H9.215v9.794H6.84z"/>
			<path fill="#CD0009" d="M23.439,59.626V47.84h4.999c1.256,0,2.171,0.104,2.74,0.316c0.57,0.211,1.025,0.588,1.368,1.13
				c0.343,0.54,0.514,1.161,0.514,1.856c0,0.885-0.26,1.616-0.778,2.191c-0.519,0.577-1.294,0.938-2.326,1.09
				c0.513,0.3,0.937,0.63,1.271,0.988c0.334,0.36,0.784,0.998,1.352,1.914l1.437,2.3h-2.84l-1.717-2.565
				c-0.609-0.917-1.027-1.494-1.251-1.731c-0.226-0.239-0.463-0.403-0.714-0.491c-0.252-0.089-0.65-0.134-1.196-0.134h-0.481v4.922
				H23.439z M25.814,52.824h1.758c1.139,0,1.85-0.049,2.133-0.145c0.284-0.097,0.506-0.264,0.666-0.5
				c0.161-0.235,0.241-0.53,0.241-0.884c0-0.396-0.105-0.717-0.317-0.961c-0.211-0.244-0.51-0.397-0.895-0.463
				c-0.193-0.026-0.771-0.04-1.732-0.04h-1.854V52.824z"/>
			<path fill="#CD0009" d="M55.106,59.626h-2.583l-1.027-2.677h-4.701l-0.971,2.677h-2.519l4.581-11.786h2.512L55.106,59.626z
				 M50.733,54.963l-1.62-4.375l-1.589,4.375H50.733z"/>
			<path fill="#CD0009" d="M65.592,59.626V47.84h2.311l4.814,7.871V47.84h2.206v11.786H72.54l-4.742-7.687v7.687H65.592z"/>
			<path fill="#CD0009" d="M86.034,55.79l2.311-0.225c0.139,0.778,0.42,1.349,0.846,1.712c0.425,0.366,0.999,0.548,1.721,0.548
				c0.765,0,1.341-0.162,1.729-0.487c0.388-0.323,0.582-0.702,0.582-1.137c0-0.28-0.082-0.516-0.245-0.712
				c-0.164-0.195-0.449-0.366-0.854-0.51c-0.279-0.098-0.913-0.27-1.901-0.516c-1.273-0.316-2.167-0.705-2.68-1.166
				c-0.722-0.647-1.083-1.439-1.083-2.372c0-0.601,0.17-1.162,0.509-1.684c0.34-0.523,0.829-0.921,1.468-1.194
				c0.639-0.272,1.411-0.411,2.315-0.411c1.476,0,2.587,0.326,3.333,0.973c0.746,0.649,1.138,1.516,1.175,2.598l-2.375,0.104
				c-0.102-0.605-0.32-1.041-0.655-1.306c-0.334-0.266-0.835-0.398-1.504-0.398c-0.69,0-1.231,0.142-1.621,0.426
				c-0.251,0.184-0.377,0.427-0.377,0.731c0,0.279,0.117,0.518,0.353,0.716c0.299,0.253,1.027,0.515,2.182,0.788
				c1.155,0.272,2.01,0.557,2.564,0.849c0.553,0.291,0.986,0.691,1.299,1.199c0.313,0.506,0.47,1.131,0.47,1.877
				c0,0.674-0.188,1.308-0.562,1.896c-0.374,0.591-0.904,1.028-1.588,1.314c-0.685,0.287-1.539,0.432-2.56,0.432
				c-1.487,0-2.629-0.346-3.426-1.034C86.666,58.112,86.189,57.109,86.034,55.79z"/>
			<path fill="#CD0009" d="M106.861,59.626v-11.69h2.375v9.705h5.905v1.985H106.861z"/>
			<path fill="#CD0009" d="M125.964,59.626V47.84h2.375v11.786H125.964z"/>
			<path fill="#CD0009" d="M139.827,59.626V47.84h2.311l4.814,7.871V47.84h2.206v11.786h-2.383l-4.741-7.687v7.687H139.827z"/>
			<path fill="#CD0009" d="M160.871,59.626V47.84h8.721v1.992h-6.346v2.613h5.905v1.986h-5.905v3.209h6.571v1.985H160.871z"/>
			<path fill="#CD0009" d="M180.431,55.79l2.311-0.225c0.139,0.778,0.421,1.349,0.846,1.712c0.426,0.366,1,0.548,1.721,0.548
				c0.765,0,1.342-0.162,1.729-0.487c0.389-0.323,0.582-0.702,0.582-1.137c0-0.28-0.082-0.516-0.245-0.712
				c-0.164-0.195-0.449-0.366-0.855-0.51c-0.278-0.098-0.912-0.27-1.901-0.516c-1.273-0.316-2.167-0.705-2.68-1.166
				c-0.722-0.647-1.083-1.439-1.083-2.372c0-0.601,0.169-1.162,0.509-1.684c0.339-0.523,0.829-0.921,1.468-1.194
				c0.639-0.272,1.411-0.411,2.315-0.411c1.476,0,2.587,0.326,3.333,0.973c0.746,0.649,1.138,1.516,1.175,2.598l-2.374,0.104
				c-0.103-0.605-0.32-1.041-0.655-1.306c-0.334-0.266-0.835-0.398-1.504-0.398c-0.69,0-1.23,0.142-1.622,0.426
				c-0.25,0.184-0.376,0.427-0.376,0.731c0,0.279,0.118,0.518,0.353,0.716c0.3,0.253,1.028,0.515,2.183,0.788
				c1.155,0.272,2.009,0.557,2.563,0.849c0.554,0.291,0.987,0.691,1.3,1.199c0.313,0.506,0.469,1.131,0.469,1.877
				c0,0.674-0.187,1.308-0.562,1.896c-0.374,0.591-0.904,1.028-1.588,1.314c-0.685,0.287-1.539,0.432-2.56,0.432
				c-1.487,0-2.629-0.346-3.425-1.034C181.062,58.112,180.585,57.109,180.431,55.79z"/>
		</g>
		<rect x="0.821" y="63.443" fill="#CD0009" width="192.25" height="1.557"/>
	</g>
</g>
</svg>
